<svg width="14" height="14" viewBox="0 0 14 14" fill="none" xmlns="http://www.w3.org/2000/svg">
<path fill-rule="evenodd" clip-rule="evenodd" d="M7.61334 1.15461C7.61337 0.815836 7.33878 0.541237 7.00001 0.541275C6.66131 0.541237 6.38669 0.815859 6.38673 1.15455L6.3867 6.38667L1.15462 6.38666C0.81588 6.38667 0.541281 6.66127 0.541281 7C0.541281 7.33873 0.815879 7.61333 1.15461 7.61333L6.3867 7.61333L6.3867 12.8454C6.38673 13.1842 6.66128 13.4587 7.00005 13.4588C7.33875 13.4587 7.61334 13.1841 7.61339 12.8454L7.61337 7.61333L12.8455 7.61332C13.1842 7.61332 13.4588 7.3387 13.4588 7.00005C13.4588 6.66124 13.1842 6.38669 12.8454 6.38669L7.61337 6.38667L7.61334 1.15461Z" fill="#D3EFFF"/>
</svg>
