<svg width="10" height="10" viewBox="0 0 10 10" fill="none" xmlns="http://www.w3.org/2000/svg">
<path fill-rule="evenodd" clip-rule="evenodd" d="M9.56695 1.30035C9.80653 1.06083 9.80653 0.672486 9.56695 0.432966C9.32749 0.193446 8.93911 0.193446 8.69965 0.432966L4.99997 4.13261L1.30033 0.432966C1.0608 0.193446 0.672456 0.193446 0.432936 0.432966C0.193416 0.672486 0.193416 1.06083 0.432936 1.30035L4.13258 5L0.432936 8.69963C0.193416 8.93921 0.193416 9.32747 0.432936 9.56705C0.672456 9.80651 1.0608 9.80651 1.30033 9.56705L4.99997 5.86738L8.69965 9.56705C8.93911 9.80651 9.32749 9.80651 9.56695 9.56705C9.80653 9.32747 9.80653 8.93921 9.56695 8.69963L5.86735 5L9.56695 1.30035Z" fill="#011722"/>
</svg>
